<svg width="26" height="26" viewBox="0 0 26 26" fill="none" xmlns="http://www.w3.org/2000/svg">
<path fill-rule="evenodd" clip-rule="evenodd" d="M5.57222 17.229L6.75222 16.047C7.13022 15.669 7.33822 15.167 7.33822 14.633V9.95602C7.33822 8.59902 7.92822 7.30202 8.95822 6.40002C9.99622 5.49002 11.3182 5.09002 12.6952 5.27102C15.0222 5.58002 16.7772 7.68402 16.7772 10.166V14.633C16.7772 15.167 16.9852 15.669 17.3622 16.046L18.5432 17.229H5.57222ZM14.0572 19.57C14.0572 20.469 13.1412 21.229 12.0572 21.229C10.9732 21.229 10.0572 20.469 10.0572 19.57V19.229H14.0572V19.57ZM20.5782 16.437L18.7772 14.633V10.166C18.7772 6.68502 16.2752 3.72802 12.9572 3.28902C11.0352 3.03302 9.09522 3.62002 7.64022 4.89602C6.17622 6.17802 5.33822 8.02202 5.33822 9.95602L5.33722 14.633L3.53622 16.437C3.06722 16.907 2.92822 17.606 3.18222 18.219C3.43722 18.833 4.03022 19.229 4.69422 19.229H8.05722V19.57C8.05722 21.588 9.85122 23.229 12.0572 23.229C14.2632 23.229 16.0572 21.588 16.0572 19.57V19.229H19.4202C20.0842 19.229 20.6762 18.833 20.9302 18.22C21.1852 17.606 21.0472 16.906 20.5782 16.437Z" fill="#768298"/>
<rect x="12.5576" y="0.729004" width="12" height="12" rx="6" fill="#FF3332"/>
<path d="M18.4959 9.801C18.1919 9.801 17.9173 9.75567 17.6719 9.665C17.4319 9.57434 17.2266 9.45167 17.0559 9.297C16.8853 9.137 16.7519 8.95034 16.6559 8.737C16.5599 8.52367 16.5066 8.29167 16.4959 8.041H17.1359C17.1519 8.21167 17.1893 8.37167 17.2479 8.521C17.3119 8.665 17.3999 8.79034 17.5119 8.897C17.6239 9.00367 17.7626 9.089 17.9279 9.153C18.0933 9.21167 18.2879 9.241 18.5119 9.241C18.9653 9.241 19.2959 9.14234 19.5039 8.945C19.7119 8.74234 19.8159 8.473 19.8159 8.137C19.8159 7.39567 19.4133 7.025 18.6079 7.025H18.1759V6.441H18.5759C18.9493 6.441 19.2213 6.35834 19.3919 6.193C19.5626 6.02234 19.6479 5.77967 19.6479 5.465C19.6479 5.193 19.5626 4.96634 19.3919 4.785C19.2213 4.59834 18.9599 4.505 18.6079 4.505C18.2506 4.505 17.9599 4.60367 17.7359 4.801C17.5119 4.99834 17.3813 5.25967 17.3439 5.585H16.7359C16.7466 5.361 16.7973 5.15034 16.8879 4.953C16.9839 4.75034 17.1146 4.57434 17.2799 4.425C17.4453 4.27567 17.6399 4.15834 17.8639 4.073C18.0879 3.98234 18.3359 3.937 18.6079 3.937C18.8799 3.937 19.1226 3.97967 19.3359 4.065C19.5493 4.145 19.7279 4.257 19.8719 4.401C20.0213 4.53967 20.1333 4.69967 20.2079 4.881C20.2879 5.06234 20.3279 5.25167 20.3279 5.449C20.3279 5.77434 20.2426 6.03834 20.0719 6.241C19.9013 6.43834 19.6853 6.59034 19.4239 6.697C19.7599 6.78767 20.0266 6.95034 20.2239 7.185C20.4266 7.41967 20.5279 7.737 20.5279 8.137C20.5279 8.39834 20.4773 8.633 20.3759 8.841C20.2746 9.04367 20.1333 9.217 19.9519 9.361C19.7759 9.505 19.5626 9.61434 19.3119 9.689C19.0613 9.76367 18.7893 9.801 18.4959 9.801Z" fill="white"/>
<rect x="12.5576" y="0.729004" width="12" height="12" rx="6" stroke="white"/>
</svg>
