<?xml version="1.0" encoding="utf-8"?>
<!-- Generator: Adobe Illustrator 22.0.1, SVG Export Plug-In . SVG Version: 6.00 Build 0)  -->
<svg version="1.1" id="Слой_1" xmlns="http://www.w3.org/2000/svg" xmlns:xlink="http://www.w3.org/1999/xlink" x="0px" y="0px"
	 viewBox="0 0 18 18" style="enable-background:new 0 0 18 18;" xml:space="preserve">
<style type="text/css">
	.st0{fill:#768298;}
</style>
<g>
	<path class="st0" d="M17,17.9c-0.2,0-0.5-0.1-0.6-0.3l-4.3-4.3c-1.3,1-2.9,1.6-4.6,1.6c-4.1,0-7.4-3.3-7.4-7.4
		c0-4.1,3.3-7.4,7.4-7.4c4.1,0,7.4,3.3,7.4,7.4c0,1.7-0.6,3.3-1.6,4.6l4.3,4.3c0.4,0.4,0.4,0.9,0,1.3C17.5,17.8,17.2,17.9,17,17.9z
		 M7.5,1.9c-3.1,0-5.6,2.5-5.6,5.6s2.5,5.6,5.6,5.6c1.5,0,2.9-0.6,4-1.6c1.1-1.1,1.6-2.5,1.6-4C13.1,4.4,10.6,1.9,7.5,1.9z"/>
</g>
</svg>
