<?xml version="1.0" encoding="utf-8"?>
<!-- Generator: Adobe Illustrator 22.0.1, SVG Export Plug-In . SVG Version: 6.00 Build 0)  -->
<svg version="1.1" id="Слой_1" xmlns="http://www.w3.org/2000/svg" xmlns:xlink="http://www.w3.org/1999/xlink" x="0px" y="0px"
	 viewBox="0 0 25 25" style="enable-background:new 0 0 25 25;" xml:space="preserve">
<style type="text/css">
	.st0{fill:#34AADD;}
</style>
<g>
	<path class="st0" d="M12.1,13.2c-4.1,0-7.4,3.1-7.9,7c-0.1,0.5,0.4,1,0.9,1c0.6,0,1-0.5,1.1-1c0.5-2.8,2.9-5,5.9-5
		c3,0,5.4,2.2,5.9,5c0.1,0.5,0.5,1,1.1,1c0.6,0,1-0.5,0.9-1C19.5,16.3,16.1,13.2,12.1,13.2z"/>
</g>
<g>
	<path class="st0" d="M12.1,12.2c-2.8,0-5-2.2-5-5s2.2-5,5-5s5,2.2,5,5S14.8,12.2,12.1,12.2z M12.1,4.2c-1.7,0-3,1.3-3,3s1.3,3,3,3
		s3-1.3,3-3S13.7,4.2,12.1,4.2z"/>
</g>
</svg>
